<svg width="48" height="48" viewBox="0 0 48 48" fill="none" xmlns="http://www.w3.org/2000/svg">
<path fill-rule="evenodd" clip-rule="evenodd" d="M23.9226 0C10.7122 0 0 10.9811 0 24.5284C0 35.3662 6.85455 44.5601 16.3597 47.8038C17.5549 48.0313 17.9938 47.2717 17.9938 46.6239C17.9938 46.039 17.9717 44.1068 17.9614 42.0572C11.3061 43.541 9.90172 39.1632 9.90172 39.1632C8.8135 36.328 7.24555 35.5741 7.24555 35.5741C5.07466 34.0518 7.40916 34.0835 7.40916 34.0835C9.81101 34.2561 11.0763 36.6111 11.0763 36.6111C13.21 40.3602 16.6727 39.2765 18.0378 38.6501C18.2525 37.0648 18.8725 35.9823 19.5566 35.3698C14.2431 34.7504 8.65703 32.6468 8.65703 23.2482C8.65703 20.5702 9.59194 18.3821 11.1223 16.664C10.8735 16.0466 10.0546 13.5518 11.3536 10.1732C11.3536 10.1732 13.3621 9.51397 17.9336 12.6875C19.8423 12.1436 21.8892 11.8702 23.9226 11.8609C25.9548 11.8702 28.0029 12.1428 29.9151 12.6867C34.4811 9.51316 36.4872 10.1724 36.4872 10.1724C37.7894 13.5506 36.9705 16.0458 36.7221 16.6632C38.256 18.3813 39.1842 20.5694 39.1842 23.2474C39.1842 32.6683 33.5878 34.7423 28.2608 35.3499C29.1193 36.1111 29.8838 37.6042 29.8838 39.8922C29.8838 43.1742 29.8561 45.8156 29.8561 46.6235C29.8561 47.2762 30.2871 48.041 31.4993 47.8002C40.999 44.5532 47.8456 35.3621 47.8456 24.5284C47.8452 10.9819 37.1341 0 23.9226 0Z" fill="#D4C2FC"/>
<path d="M9.0607 35.2171C9.00801 35.339 8.82103 35.3755 8.65069 35.2922C8.47638 35.2126 8.37933 35.0465 8.43558 34.9242C8.48708 34.7983 8.67446 34.7638 8.84757 34.8479C9.02188 34.9279 9.12092 35.0957 9.06031 35.2175L9.0607 35.2171ZM10.0297 36.3256C9.91599 36.434 9.69295 36.3837 9.54163 36.2118C9.38475 36.0412 9.35544 35.8126 9.47151 35.7025C9.58956 35.5944 9.80586 35.6456 9.96273 35.8162C10.1188 35.9893 10.1497 36.2159 10.0301 36.326L10.0297 36.3256ZM10.9733 37.7379C10.8267 37.8427 10.5867 37.7448 10.4385 37.5266C10.2919 37.3081 10.2919 37.0461 10.4425 36.9417C10.5902 36.837 10.8267 36.9316 10.9773 37.1477C11.123 37.369 11.123 37.6314 10.9733 37.7379ZM12.2651 39.103C12.1344 39.2513 11.8547 39.2115 11.6503 39.0096C11.4416 38.8118 11.3833 38.5303 11.5144 38.3825C11.6475 38.2338 11.9284 38.2752 12.134 38.4759C12.3428 38.6733 12.4058 38.9552 12.2659 39.1026L12.2651 39.103ZM14.0478 39.8955C13.9896 40.0876 13.721 40.1749 13.4496 40.0929C13.1791 40.0088 13.002 39.7842 13.0574 39.59C13.1129 39.3963 13.3835 39.3057 13.6564 39.393C13.927 39.4767 14.1041 39.7001 14.0478 39.8955ZM16.006 40.0421C16.0127 40.2444 15.7829 40.4118 15.4989 40.4158C15.2125 40.4227 14.9807 40.2586 14.978 40.0596C14.978 39.8553 15.203 39.69 15.489 39.6843C15.773 39.679 16.0064 39.8415 16.0064 40.0417L16.006 40.0421ZM17.8275 39.7245C17.8615 39.9215 17.6639 40.1242 17.3814 40.1782C17.1041 40.231 16.8466 40.1083 16.8109 39.913C16.7769 39.7107 16.9781 39.508 17.2554 39.4556C17.5383 39.4056 17.7918 39.5242 17.8275 39.7245Z" fill="#D4C2FC"/>
</svg>
