<svg width="47" height="47" viewBox="0 0 47 47" fill="none" xmlns="http://www.w3.org/2000/svg">
<path d="M26.9251 0.969429C25.8923 0.343585 24.7077 0.0126953 23.5 0.0126953C22.2923 0.0126953 21.1077 0.343585 20.0749 0.969429L4.653 10.3166C3.68117 10.9054 2.87757 11.7349 2.31979 12.7249C1.76202 13.7149 1.4689 14.832 1.46875 15.9683V31.0318C1.4689 32.1681 1.76202 33.2852 2.31979 34.2752C2.87757 35.2652 3.68117 36.0947 4.653 36.6836L20.0749 46.0307C21.1077 46.6565 22.2923 46.9874 23.5 46.9874C24.7077 46.9874 25.8923 46.6565 26.9251 46.0307L42.347 36.6836C43.3188 36.0947 44.1224 35.2652 44.6802 34.2752C45.238 33.2852 45.5311 32.1681 45.5312 31.0318V15.9683C45.5311 14.832 45.238 13.7149 44.6802 12.7249C44.1224 11.7349 43.3188 10.9054 42.347 10.3166L26.9251 0.969429Z" fill="#7BC9FF"/>
<path d="M27.3182 23.5H25.5639" stroke="black" stroke-width="2" stroke-linecap="round" stroke-linejoin="round"/>
<path d="M30.311 23.5H28.5566" stroke="black" stroke-width="2" stroke-linecap="round" stroke-linejoin="round"/>
<path d="M33.3037 23.5H31.5493" stroke="black" stroke-width="2" stroke-linecap="round" stroke-linejoin="round"/>
<path d="M36.2964 23.5H34.5421" stroke="black" stroke-width="2" stroke-linecap="round" stroke-linejoin="round"/>
<path d="M21.4361 23.5H19.6818" stroke="black" stroke-width="2" stroke-linecap="round" stroke-linejoin="round"/>
<path d="M18.4434 23.5H16.689" stroke="black" stroke-width="2" stroke-linecap="round" stroke-linejoin="round"/>
<path d="M15.4507 23.5H13.6964" stroke="black" stroke-width="2" stroke-linecap="round" stroke-linejoin="round"/>
<path d="M12.458 23.5H10.7036" stroke="black" stroke-width="2" stroke-linecap="round" stroke-linejoin="round"/>
<path d="M23.5 16.689V18.4433" stroke="black" stroke-width="2" stroke-linecap="round" stroke-linejoin="round"/>
<path d="M23.5 19.6816V21.436" stroke="black" stroke-width="2" stroke-linecap="round" stroke-linejoin="round"/>
<path d="M23.5 25.5638V27.3182" stroke="black" stroke-width="2" stroke-linecap="round" stroke-linejoin="round"/>
<path d="M23.5 28.5566V30.311" stroke="black" stroke-width="2" stroke-linecap="round" stroke-linejoin="round"/>
<path d="M23.5 31.5493V33.3037" stroke="black" stroke-width="2" stroke-linecap="round" stroke-linejoin="round"/>
<path d="M23.5 34.542V36.2963" stroke="black" stroke-width="2" stroke-linecap="round" stroke-linejoin="round"/>
<path d="M23.5 13.6963V15.4506" stroke="black" stroke-width="2" stroke-linecap="round" stroke-linejoin="round"/>
<path d="M23.5 10.7035V12.4578" stroke="black" stroke-width="2" stroke-linecap="round" stroke-linejoin="round"/>
<path d="M12.3548 20.8169C30.1046 2.7575 24.7383 31.343 34.8516 33.6132" stroke="black" stroke-width="2" stroke-linecap="round" stroke-linejoin="round"/>
<path d="M23.5 41.0434C33.189 41.0434 41.0434 33.1889 41.0434 23.4999C41.0434 13.811 33.189 5.95654 23.5 5.95654C13.8111 5.95654 5.9566 13.811 5.9566 23.4999C5.9566 33.1889 13.8111 41.0434 23.5 41.0434Z" stroke="black" stroke-width="2" stroke-linecap="round" stroke-linejoin="round"/>
<path d="M23.5 24.1119C23.838 24.1119 24.112 23.8379 24.112 23.4999C24.112 23.1619 23.838 22.8879 23.5 22.8879C23.162 22.8879 22.888 23.1619 22.888 23.4999C22.888 23.8379 23.162 24.1119 23.5 24.1119Z" fill="black"/>
</svg>
