<svg width="48" height="48" viewBox="0 0 48 48" fill="none" xmlns="http://www.w3.org/2000/svg">
<path d="M27.498 0.990029C26.4432 0.350869 25.2334 0.0129395 24 0.0129395C22.7666 0.0129395 21.5568 0.350869 20.502 0.990029L4.752 10.536C3.75949 11.1374 2.9388 11.9845 2.36915 12.9956C1.79951 14.0067 1.50016 15.1475 1.5 16.308V31.692C1.50016 32.8525 1.79951 33.9934 2.36915 35.0044C2.9388 36.0155 3.75949 36.8626 4.752 37.464L20.502 47.01C21.5568 47.6492 22.7666 47.9871 24 47.9871C25.2334 47.9871 26.4432 47.6492 27.498 47.01L43.248 37.464C44.2405 36.8626 45.0612 36.0155 45.6308 35.0044C46.2005 33.9934 46.4998 32.8525 46.5 31.692V16.308C46.4998 15.1475 46.2005 14.0067 45.6308 12.9956C45.0612 11.9845 44.2405 11.1374 43.248 10.536L27.498 0.990029Z" fill="#7BC9FF"/>
<path d="M16.7273 34.9094C16.7273 35.8737 16.3441 36.7986 15.6622 37.4805C14.9802 38.1624 14.0553 38.5455 13.0909 38.5455C12.1265 38.5455 11.2015 38.1624 10.5196 37.4805C9.83764 36.7986 9.45453 35.8737 9.45453 34.9094C9.45453 33.945 9.83764 33.0201 10.5196 32.3382C11.2015 31.6563 12.1265 31.2732 13.0909 31.2732C14.0553 31.2732 14.9802 31.6563 15.6622 32.3382C16.3441 33.0201 16.7273 33.945 16.7273 34.9094Z" fill="black"/>
<path d="M38.5454 13.0911C38.5454 14.0555 38.1623 14.9804 37.4804 15.6623C36.7984 16.3442 35.8735 16.7273 34.9091 16.7273C33.9446 16.7273 33.0197 16.3442 32.3378 15.6623C31.6558 14.9804 31.2727 14.0555 31.2727 13.0911C31.2727 12.1268 31.6558 11.2019 32.3378 10.52C33.0197 9.83805 33.9446 9.45496 34.9091 9.45496C35.8735 9.45496 36.7984 9.83805 37.4804 10.52C38.1623 11.2019 38.5454 12.1268 38.5454 13.0911Z" fill="black"/>
<path d="M13.0909 34.909C13.0909 22.1817 22.1818 13.0908 34.9091 13.0908" stroke="black" stroke-width="3"/>
</svg>
