<svg width="49" height="48" viewBox="0 0 49 48" fill="none" xmlns="http://www.w3.org/2000/svg">
<path d="M32.3417 6.00277H16.636C11.0268 6.00277 6.53939 10.4901 6.53939 16.0993V31.8051C6.53939 37.4143 11.0268 41.9017 16.636 41.9017H32.3417C37.9509 41.9017 42.4383 37.4143 42.4383 31.8051V16.0993C42.4383 10.4901 37.9509 6.00277 32.3417 6.00277ZM20.0015 34.0488C20.0015 34.7219 19.5527 35.1706 18.8796 35.1706H14.3923C13.7192 35.1706 13.2704 34.7219 13.2704 34.0488V20.5867C13.2704 19.9136 13.7192 19.4649 14.3923 19.4649H18.8796C19.5527 19.4649 20.0015 19.9136 20.0015 20.5867V34.0488ZM16.636 18.343C14.7288 18.343 13.2704 16.8846 13.2704 14.9775C13.2704 13.0704 14.7288 11.612 16.636 11.612C18.5431 11.612 20.0015 13.0704 20.0015 14.9775C20.0015 16.8846 18.5431 18.343 16.636 18.343ZM35.7072 34.0488C35.7072 34.7219 35.2585 35.1706 34.5854 35.1706H31.2199C30.5468 35.1706 30.098 34.7219 30.098 34.0488V26.7568C30.098 25.8593 29.3128 25.0741 28.4153 25.0741C27.5178 25.0741 26.7325 25.8593 26.7325 26.7568V34.0488C26.7325 34.7219 26.2838 35.1706 25.6107 35.1706H22.2452C21.5721 35.1706 21.1233 34.7219 21.1233 34.0488V20.5867C21.1233 19.9136 21.5721 19.4649 22.2452 19.4649H26.7325C27.0691 19.4649 27.2934 19.577 27.5178 19.8014C28.1909 19.577 28.864 19.4649 29.5371 19.4649C32.9026 19.4649 35.7072 22.2695 35.7072 25.635V34.0488Z" fill="#D4C2FC"/>
<path d="M48.3822 23.9228C48.3822 37.135 37.6716 47.8456 24.4594 47.8456C11.2472 47.8456 0.536621 37.135 0.536621 23.9228C0.536621 10.7106 11.2472 0 24.4594 0C37.6716 0 48.3822 10.7106 48.3822 23.9228Z" fill="url(#paint0_radial_1112_69)"/>
<defs>
<radialGradient id="paint0_radial_1112_69" cx="0" cy="0" r="1" gradientUnits="userSpaceOnUse" gradientTransform="translate(24.4594 23.9228) rotate(89.9032) scale(17.4198 15.1703)">
<stop offset="0.9999" stop-color="white" stop-opacity="0"/>
<stop offset="1" stop-color="#D4C2FC"/>
</radialGradient>
</defs>
</svg>
