<svg width="47" height="47" viewBox="0 0 47 47" fill="none" xmlns="http://www.w3.org/2000/svg">
<path d="M26.9251 0.969429C25.8923 0.343585 24.7077 0.0126953 23.5 0.0126953C22.2923 0.0126953 21.1077 0.343585 20.0749 0.969429L4.653 10.3166C3.68117 10.9054 2.87757 11.7349 2.31979 12.7249C1.76202 13.7149 1.4689 14.832 1.46875 15.9683V31.0318C1.4689 32.1681 1.76202 33.2852 2.31979 34.2752C2.87757 35.2652 3.68117 36.0947 4.653 36.6836L20.0749 46.0307C21.1077 46.6565 22.2923 46.9874 23.5 46.9874C24.7077 46.9874 25.8923 46.6565 26.9251 46.0307L42.347 36.6836C43.3188 36.0947 44.1224 35.2652 44.6802 34.2752C45.238 33.2852 45.5311 32.1681 45.5312 31.0318V15.9683C45.5311 14.832 45.238 13.7149 44.6802 12.7249C44.1224 11.7349 43.3188 10.9054 42.347 10.3166L26.9251 0.969429Z" fill="#7BC9FF"/>
<path d="M12.1427 12.0609V34.9397H13.789V35.4905H11.5102V11.5109H13.789V12.0617L12.1427 12.0609ZM19.1799 19.3125V20.4718H19.2106C19.5194 20.0259 19.8941 19.6872 20.3264 19.4444C20.7603 19.2024 21.2639 19.0817 21.8252 19.0817C22.364 19.0817 22.8593 19.1874 23.3052 19.3942C23.754 19.6048 24.0897 19.9757 24.3235 20.5025C24.5776 20.1278 24.9253 19.7958 25.3577 19.5111C25.7915 19.2263 26.3071 19.0817 26.9036 19.0817C27.3562 19.0817 27.7736 19.1364 28.1603 19.2496C28.5507 19.3582 28.8789 19.5343 29.1554 19.7764C29.4289 20.0229 29.6433 20.3391 29.7999 20.7296C29.952 21.1192 30.0299 21.5921 30.0299 22.1466V27.868H27.6852V23.0211C27.6852 22.7356 27.6732 22.4628 27.6492 22.2088C27.6342 21.9787 27.575 21.7562 27.4701 21.5494C27.3719 21.3613 27.2206 21.2054 27.0325 21.105C26.8414 20.9911 26.5761 20.9371 26.2479 20.9371C25.9159 20.9371 25.6507 20.9993 25.4476 21.1237C25.249 21.2489 25.0811 21.4205 24.968 21.6235C24.8473 21.8386 24.7694 22.0762 24.7372 22.3182C24.6982 22.5797 24.6795 22.842 24.675 23.1035V27.8687H22.3287V23.0721C22.3287 22.818 22.325 22.5685 22.31 22.3227C22.3018 22.0851 22.2553 21.8551 22.1654 21.6363C22.0874 21.4257 21.9398 21.2496 21.7517 21.1327C21.5606 21.0076 21.2751 20.9416 20.9005 20.9416C20.7873 20.9416 20.6397 20.9649 20.4598 21.0158C20.28 21.066 20.1009 21.1597 19.933 21.2968C19.7614 21.4377 19.6123 21.6363 19.4917 21.8941C19.371 22.1511 19.3126 22.4906 19.3126 22.9124V27.8732H16.9663V19.3148L19.1799 19.3125ZM34.8573 34.939V12.0602H33.211V11.5094H35.4898V35.489H33.211V34.9382L34.8573 34.939Z" fill="black" stroke="black" stroke-width="2"/>
</svg>
