<svg width="47" height="47" viewBox="0 0 47 47" fill="none" xmlns="http://www.w3.org/2000/svg">
<path d="M26.9251 0.969429C25.8923 0.343585 24.7077 0.0126953 23.5 0.0126953C22.2923 0.0126953 21.1077 0.343585 20.0749 0.969429L4.653 10.3166C3.68117 10.9054 2.87757 11.7349 2.31979 12.7249C1.76202 13.7149 1.4689 14.832 1.46875 15.9683V31.0318C1.4689 32.1681 1.76202 33.2852 2.31979 34.2752C2.87757 35.2652 3.68117 36.0947 4.653 36.6836L20.0749 46.0307C21.1077 46.6565 22.2923 46.9874 23.5 46.9874C24.7077 46.9874 25.8923 46.6565 26.9251 46.0307L42.347 36.6836C43.3188 36.0947 44.1224 35.2652 44.6802 34.2752C45.238 33.2852 45.5311 32.1681 45.5312 31.0318V15.9683C45.5311 14.832 45.238 13.7149 44.6802 12.7249C44.1224 11.7349 43.3188 10.9054 42.347 10.3166L26.9251 0.969429Z" fill="#7BC9FF"/>
<path d="M23.022 9.29048C22.3847 8.65317 21.3513 8.65317 20.7141 9.29048L17.4501 12.5544C16.8128 13.1917 16.8128 14.225 17.4501 14.8623C18.0875 15.4996 19.1208 15.4996 19.7581 14.8623L21.868 12.7524L23.9779 14.8623C24.6152 15.4996 25.6486 15.4996 26.2858 14.8623C26.9231 14.225 26.9231 13.1917 26.2858 12.5544L23.022 9.29048Z" fill="black"/>
<path d="M27.5359 19.8005C27.9336 19.4596 28.545 19.5764 28.7889 20.04L30.5983 23.4775L24.7939 29.2819C24.1567 29.9191 24.1567 30.9525 24.7939 31.5898C25.4312 32.227 26.4646 32.227 27.1018 31.5898L32.1899 26.5019L34.0901 30.1122C35.31 32.4301 38.367 33.0143 40.3557 31.3097L40.8815 30.859C41.5658 30.2723 41.6451 29.242 41.0585 28.5578C40.472 27.8735 39.4418 27.7942 38.7573 28.3809L38.2315 28.8316C37.8338 29.1725 37.2223 29.0557 36.9784 28.592L34.6063 24.0853L39.3414 19.3502C39.9787 18.7129 39.9787 17.6796 39.3414 17.0423C38.7041 16.405 37.6708 16.405 37.0335 17.0423L33.0147 21.0611L31.6773 18.5199C30.4573 16.202 27.4005 15.6178 25.4118 17.3224L24.8858 17.7732C24.2015 18.3597 24.1222 19.39 24.7089 20.0743C25.2954 20.7585 26.3257 20.8379 27.01 20.2513L27.5359 19.8005Z" fill="black"/>
<path d="M8.88509 26.299C10.3061 26.2708 11.7865 26.1764 13.1365 25.8848C14.8924 25.5055 16.7094 24.7333 17.8235 23.0495C18.8252 21.5357 18.8718 19.6909 17.9125 18.2974C16.9331 16.8747 15.1555 16.27 13.2431 16.7035C12.515 16.8686 11.1447 17.2181 9.72579 18.3457C8.30006 19.4788 6.94998 21.295 6.04344 24.1907C5.3889 26.2814 5.37665 28.1623 6.04861 29.6969C6.73504 31.2643 8.03812 32.2427 9.52444 32.6531C12.4009 33.4471 15.9515 32.1714 18.2013 29.3308C18.7608 28.6243 18.6417 27.5979 17.9352 27.0383C17.2286 26.4787 16.2022 26.5978 15.6426 27.3044C14.0639 29.2977 11.798 29.8947 10.393 29.5069C9.73859 29.3262 9.28472 28.9501 9.0384 28.3875C8.84531 27.9466 8.72895 27.2705 8.88509 26.299ZM15.2241 20.1481C15.3466 20.3261 15.4517 20.7192 15.1015 21.2484C14.6699 21.9007 13.8427 22.3931 12.4475 22.6945C11.7225 22.851 10.9199 22.9401 10.0638 22.9894C10.6208 21.9735 11.2222 21.3256 11.7565 20.901C12.6085 20.2239 13.4167 20.0109 13.9647 19.8866C14.794 19.6986 15.1216 19.9993 15.2241 20.1481Z" fill="black"/>
</svg>
